0
SECTION
2
HEADER
9
$INSUNITS
70
4
9
$ACADVER
1
AC1014
9
$HANDSEED
5
FFFF
0
ENDSEC
0
SECTION
2
TABLES
0
TABLE
2
VPORT
5
8
100
AcDbSymbolTable
0
ENDTAB
0
TABLE
2
LTYPE
5
5
100
AcDbSymbolTable
0
LTYPE
5
14
100
AcDbSymbolTableRecord
100
AcDbLinetypeTableRecord
2
BYBLOCK
70
0
0
LTYPE
5
15
100
AcDbSymbolTableRecord
100
AcDbLinetypeTableRecord
2
BYLAYER
70
0
0
ENDTAB
0
TABLE
2
LAYER
5
2
100
AcDbSymbolTable
70
2
0
LAYER
5
50
100
AcDbSymbolTableRecord
100
AcDbLayerTableRecord
2
0
70
0
6
CONTINUOUS
0
ENDTAB
0
TABLE
2
STYLE
5
3
100
AcDbSymbolTable
70
1
0
STYLE
5
11
100
AcDbSymbolTableRecord
100
AcDbTextStyleTableRecord
2
STANDARD
70
0
0
ENDTAB
0
TABLE
2
VIEW
5
6
100
AcDbSymbolTable
70
0
0
ENDTAB
0
TABLE
2
UCS
5
7
100
AcDbSymbolTable
70
0
0
ENDTAB
0
TABLE
2
APPID
5
9
100
AcDbSymbolTable
70
2
0
APPID
5
12
100
AcDbSymbolTableRecord
100
AcDbRegAppTableRecord
2
ACAD
70
0
0
ENDTAB
0
TABLE
2
DIMSTYLE
5
A
100
AcDbSymbolTable
70
1
0
ENDTAB
0
TABLE
2
BLOCK_RECORD
5
1
100
AcDbSymbolTable
70
1
0
BLOCK_RECORD
5
1F
100
AcDbSymbolTableRecord
100
AcDbBlockTableRecord
2
*MODEL_SPACE
0
BLOCK_RECORD
5
1B
100
AcDbSymbolTableRecord
100
AcDbBlockTableRecord
2
*PAPER_SPACE
0
ENDTAB
0
ENDSEC
0
SECTION
2
BLOCKS
0
BLOCK
5
20
100
AcDbEntity
100
AcDbBlockBegin
2
*MODEL_SPACE
0
ENDBLK
5
21
100
AcDbEntity
100
AcDbBlockEnd
0
BLOCK
5
1C
100
AcDbEntity
100
AcDbBlockBegin
2
*PAPER_SPACE
0
ENDBLK
5
1D
100
AcDbEntity
100
AcDbBlockEnd
0
ENDSEC
0
SECTION
2
ENTITIES
0
LWPOLYLINE
5
100
100
AcDbEntity
8
0
100
AcDbPolyline
90
12
70
1
43
0.0
10
24.692307692305974
20
-16.769914891763168
42
0.34754048559247674
10
27.000000000000036
20
-13.850889359300105
10
27
20
34.526676447657451
42
0.41421356237309592
10
24.000000000000004
20
37.526676447657444
10
-24.00000000000162
20
37.526676447657451
42
0.4142135623730937
10
-27.000000000001613
20
34.526676447657444
10
-27.000000000001624
20
-13.850889359299883
42
0.34754048559248857
10
-24.692307692307978
20
-16.769914891763353
42
-0.28351479965911497
10
-17.269914891765129
20
-24.192307692306319
42
0.34754048559249118
10
-14.350889359301661
20
-26.500000000000025
10
14.350889359298332
20
-26.500000000000014
42
0.34754048559248968
10
17.269914891761804
20
-24.192307692306336
42
-0.2835147996591495
0
ARC
5
101
100
AcDbEntity
8
0
100
AcDbCircle
10
24.000000000000007
20
34.526676447657451
30
0
40
2.9999999999999938
210
-0
220
0
230
1
100
AcDbArc
50
0
51
90.000000000000071
0
ARC
5
102
100
AcDbEntity
8
0
100
AcDbCircle
10
-24.000000000001606
20
34.526676447657444
30
0
40
3.0000000000000071
210
0
220
0
230
1
100
AcDbArc
50
90.00000000000027
51
180
0
LINE
5
103
100
AcDbEntity
8
0
100
AcDbLine
10
-24.00000000000162
20
37.526676447657451
30
0
11
24.000000000000004
21
37.526676447657444
31
0
0
CIRCLE
5
104
100
AcDbEntity
8
0
100
AcDbCircle
10
-25
20
15.239999999999998
30
0
40
0.5
210
-0
220
0
230
1
0
CIRCLE
5
105
100
AcDbEntity
8
0
100
AcDbCircle
10
-25
20
17.779999999999998
30
0
40
0.5
210
-0
220
0
230
1
0
LWPOLYLINE
5
106
100
AcDbEntity
8
0
100
AcDbPolyline
90
4
70
1
43
0.0
10
-23.75
20
19.030000000000001
10
-26.25
20
19.029999999999994
10
-26.25
20
-13.950000000000003
10
-23.75
20
-13.950000000000003
0
CIRCLE
5
107
100
AcDbEntity
8
0
100
AcDbCircle
10
-25
20
12.699999999999998
30
0
40
0.5
210
-0
220
0
230
1
0
CIRCLE
5
108
100
AcDbEntity
8
0
100
AcDbCircle
10
-25
20
10.159999999999998
30
0
40
0.5
210
-0
220
0
230
1
0
CIRCLE
5
109
100
AcDbEntity
8
0
100
AcDbCircle
10
-25
20
7.6199999999999974
30
0
40
0.5
210
-0
220
0
230
1
0
CIRCLE
5
110
100
AcDbEntity
8
0
100
AcDbCircle
10
-25
20
5.0799999999999983
30
0
40
0.5
210
-0
220
0
230
1
0
CIRCLE
5
111
100
AcDbEntity
8
0
100
AcDbCircle
10
-25
20
2.5399999999999978
30
0
40
0.5
210
-0
220
0
230
1
0
CIRCLE
5
112
100
AcDbEntity
8
0
100
AcDbCircle
10
-25
20
-2.2204460492503131e-15
30
0
40
0.5
210
-0
220
0
230
1
0
CIRCLE
5
113
100
AcDbEntity
8
0
100
AcDbCircle
10
-25
20
-2.5400000000000023
30
0
40
0.5
210
-0
220
0
230
1
0
CIRCLE
5
114
100
AcDbEntity
8
0
100
AcDbCircle
10
-25
20
-5.0800000000000018
30
0
40
0.5
210
-0
220
0
230
1
0
CIRCLE
5
115
100
AcDbEntity
8
0
100
AcDbCircle
10
-25
20
-7.6200000000000028
30
0
40
0.5
210
-0
220
0
230
1
0
CIRCLE
5
116
100
AcDbEntity
8
0
100
AcDbCircle
10
-25
20
-10.160000000000002
30
0
40
0.5
210
-0
220
0
230
1
0
CIRCLE
5
117
100
AcDbEntity
8
0
100
AcDbCircle
10
-25
20
-12.700000000000003
30
0
40
0.5
210
-0
220
0
230
1
0
LWPOLYLINE
5
118
100
AcDbEntity
8
0
100
AcDbPolyline
90
4
70
1
43
0.0
10
23.75
20
-13.950000000000003
10
23.75
20
19.029999999999998
10
26.25
20
19.029999999999994
10
26.25
20
-13.950000000000003
0
CIRCLE
5
119
100
AcDbEntity
8
0
100
AcDbCircle
10
25
20
-12.700000000000003
30
0
40
0.5
210
-0
220
0
230
1
0
CIRCLE
5
120
100
AcDbEntity
8
0
100
AcDbCircle
10
25
20
-10.160000000000002
30
0
40
0.5
210
-0
220
0
230
1
0
CIRCLE
5
121
100
AcDbEntity
8
0
100
AcDbCircle
10
25
20
-7.6200000000000028
30
0
40
0.5
210
-0
220
0
230
1
0
CIRCLE
5
122
100
AcDbEntity
8
0
100
AcDbCircle
10
25
20
-5.0800000000000018
30
0
40
0.5
210
-0
220
0
230
1
0
CIRCLE
5
123
100
AcDbEntity
8
0
100
AcDbCircle
10
25
20
-2.5400000000000023
30
0
40
0.5
210
-0
220
0
230
1
0
CIRCLE
5
124
100
AcDbEntity
8
0
100
AcDbCircle
10
25
20
-2.2204460492503131e-15
30
0
40
0.5
210
-0
220
0
230
1
0
CIRCLE
5
125
100
AcDbEntity
8
0
100
AcDbCircle
10
25
20
2.5399999999999978
30
0
40
0.5
210
-0
220
0
230
1
0
CIRCLE
5
126
100
AcDbEntity
8
0
100
AcDbCircle
10
25
20
5.0799999999999983
30
0
40
0.5
210
-0
220
0
230
1
0
CIRCLE
5
127
100
AcDbEntity
8
0
100
AcDbCircle
10
25
20
7.6199999999999974
30
0
40
0.5
210
-0
220
0
230
1
0
CIRCLE
5
128
100
AcDbEntity
8
0
100
AcDbCircle
10
25
20
10.159999999999998
30
0
40
0.5
210
-0
220
0
230
1
0
CIRCLE
5
129
100
AcDbEntity
8
0
100
AcDbCircle
10
25
20
12.699999999999998
30
0
40
0.5
210
-0
220
0
230
1
0
CIRCLE
5
130
100
AcDbEntity
8
0
100
AcDbCircle
10
25
20
15.239999999999998
30
0
40
0.5
210
-0
220
0
230
1
0
CIRCLE
5
131
100
AcDbEntity
8
0
100
AcDbCircle
10
25
20
17.779999999999998
30
0
40
0.5
210
-0
220
0
230
1
0
ENDSEC
0
SECTION
2
OBJECTS
0
DICTIONARY
5
C
100
AcDbDictionary
3
ACAD_GROUP
350
D
3
ACAD_MLINESTYLE
350
17
0
DICTIONARY
5
D
100
AcDbDictionary
0
DICTIONARY
5
1A
330
C
100
AcDbDictionary
0
DICTIONARY
5
17
100
AcDbDictionary
0
ENDSEC
0
EOF
